<svg xmlns="http://www.w3.org/2000/svg" version="1.1" xmlns:xlink="http://www.w3.org/1999/xlink" xmlns:svgjs="http://svgjs.dev/svgjs" width="1000" height="1000"><g clip-path="url(#SvgjsClipPath1198)"><rect width="1000" height="1000" fill="#ffffff"></rect><g transform="matrix(14.285714285714286,0,0,14.285714285714286,150,150)"><svg xmlns="http://www.w3.org/2000/svg" version="1.1" xmlns:xlink="http://www.w3.org/1999/xlink" xmlns:svgjs="http://svgjs.dev/svgjs" width="49" height="49"><svg width="49" height="49" viewBox="0 0 40 49" fill="currentColor" xmlns="http://www.w3.org/2000/svg">
<path d="M27.0909 16C26.9697 14.4848 26.4015 13.303 25.3864 12.4545C24.3864 11.6061 22.8636 11.1818 20.8182 11.1818C19.5152 11.1818 18.447 11.3409 17.6136 11.6591C16.7955 11.9621 16.1894 12.3788 15.7955 12.9091C15.4015 13.4394 15.197 14.0455 15.1818 14.7273C15.1515 15.2879 15.25 15.7955 15.4773 16.25C15.7197 16.6894 16.0985 17.0909 16.6136 17.4545C17.1288 17.803 17.7879 18.1212 18.5909 18.4091C19.3939 18.697 20.3485 18.9545 21.4545 19.1818L25.2727 20C27.8485 20.5455 30.053 21.2652 31.8864 22.1591C33.7197 23.053 35.2197 24.1061 36.3864 25.3182C37.553 26.5152 38.4091 27.8636 38.9545 29.3636C39.5152 30.8636 39.803 32.5 39.8182 34.2727C39.803 37.3333 39.0379 39.9242 37.5227 42.0455C36.0076 44.1667 33.8409 45.7803 31.0227 46.8864C28.2197 47.9924 24.8485 48.5455 20.9091 48.5455C16.8636 48.5455 13.3333 47.947 10.3182 46.75C7.31818 45.553 4.98485 43.7121 3.31818 41.2273C1.66667 38.7273 0.833333 35.5303 0.818182 31.6364H12.8182C12.8939 33.0606 13.25 34.2576 13.8864 35.2273C14.5227 36.197 15.4167 36.9318 16.5682 37.4318C17.7348 37.9318 19.1212 38.1818 20.7273 38.1818C22.0758 38.1818 23.2045 38.0152 24.1136 37.6818C25.0227 37.3485 25.7121 36.8864 26.1818 36.2955C26.6515 35.7045 26.8939 35.0303 26.9091 34.2727C26.8939 33.5606 26.6591 32.9394 26.2045 32.4091C25.7652 31.8636 25.0379 31.3788 24.0227 30.9545C23.0076 30.5152 21.6364 30.1061 19.9091 29.7273L15.2727 28.7273C11.1515 27.8333 7.90152 26.3409 5.52273 24.25C3.15909 22.1439 1.98485 19.2727 2 15.6364C1.98485 12.6818 2.77273 10.0985 4.36364 7.88636C5.9697 5.65909 8.18939 3.92424 11.0227 2.68182C13.8712 1.43939 17.1364 0.81818 20.8182 0.81818C24.5758 0.81818 27.8258 1.44697 30.5682 2.70454C33.3106 3.96212 35.4242 5.73485 36.9091 8.02273C38.4091 10.2955 39.1667 12.9545 39.1818 16H27.0909Z" fill="#0b5430"></path>
</svg></svg></g></g><defs><clipPath id="SvgjsClipPath1198"><rect width="1000" height="1000" x="0" y="0" rx="250" ry="250"></rect></clipPath></defs></svg>